HIERARCHY
ROOT Pelvis
{
	OFFSET 0.000000 0.000000 0.000000
	CHANNELS 6 Xposition Yposition Zposition Zrotation Yrotation Xrotation 
	JOINT Left_hip
	{
		OFFSET 0.068973 -0.091024 -0.007589
		CHANNELS 3 Zrotation Yrotation Xrotation
		JOINT Left_knee
		{
			OFFSET 0.036482 -0.391037 -0.003979
			CHANNELS 3 Zrotation Yrotation Xrotation
			JOINT Left_ankle
			{
				OFFSET -0.012239 -0.415469 -0.043440
				CHANNELS 3 Zrotation Yrotation Xrotation
				JOINT Left_foot
				{
					OFFSET 0.023806 -0.058558 0.118702
					CHANNELS 3 Zrotation Yrotation Xrotation
					End Site
					{
						OFFSET 0.000000 0.000000 0.000000
					}
				}
			}
		}
	}
	JOINT Right_hip
	{
		OFFSET -0.066552 -0.090468 -0.003847
		CHANNELS 3 Zrotation Yrotation Xrotation
		JOINT Right_knee
		{
			OFFSET -0.042435 -0.398340 -0.006400
			CHANNELS 3 Zrotation Yrotation Xrotation
			JOINT Right_ankle
			{
				OFFSET 0.014931 -0.415421 -0.041327
				CHANNELS 3 Zrotation Yrotation Xrotation
				JOINT Right_foot
				{
					OFFSET -0.021472 -0.049410 0.121889
					CHANNELS 3 Zrotation Yrotation Xrotation
					End Site
					{
						OFFSET 0.000000 0.000000 0.000000
					}
				}
			}
		}
	}
	JOINT Spine1
	{
		OFFSET -0.002904 0.105700 -0.022855
		CHANNELS 3 Zrotation Yrotation Xrotation
		JOINT Spine2
		{
			OFFSET 0.004179 0.132554 -0.002501
			CHANNELS 3 Zrotation Yrotation Xrotation
			JOINT Spine3
			{
				OFFSET 0.001987 0.049603 0.025988
				CHANNELS 3 Zrotation Yrotation Xrotation
				JOINT Neck
				{
					OFFSET -0.003935 0.211336 -0.045638
					CHANNELS 3 Zrotation Yrotation Xrotation
					JOINT Head
					{
						OFFSET 0.003906 0.065991 0.051018
						CHANNELS 3 Zrotation Yrotation Xrotation
						End Site
						{
							OFFSET 0.000000 0.000000 0.000000
						}
					}
				}
				JOINT Left_collar
				{
					OFFSET 0.072882 0.117751 -0.036270
					CHANNELS 3 Zrotation Yrotation Xrotation
					JOINT Left_shoulder
					{
						OFFSET 0.082118 0.032630 -0.005771
						CHANNELS 3 Zrotation Yrotation Xrotation
						JOINT Left_elbow
						{
							OFFSET 0.263305 -0.015144 -0.028095
							CHANNELS 3 Zrotation Yrotation Xrotation
							JOINT Left_wrist
							{
								OFFSET 0.250741 0.010115 -0.000759
								CHANNELS 3 Zrotation Yrotation Xrotation
								JOINT Left_palm
								{
									OFFSET 0.080683 -0.009989 -0.013613
									CHANNELS 3 Zrotation Yrotation Xrotation
									End Site
									{
										OFFSET 0.000000 0.000000 0.000000
									}
								}
							}
						}
					}
				}
				JOINT Right_collar
				{
					OFFSET -0.074811 0.116132 -0.040385
					CHANNELS 3 Zrotation Yrotation Xrotation
					JOINT Right_shoulder
					{
						OFFSET -0.085089 0.032943 -0.007484
						CHANNELS 3 Zrotation Yrotation Xrotation
						JOINT Right_elbow
						{
							OFFSET -0.254763 -0.014219 -0.020321
							CHANNELS 3 Zrotation Yrotation Xrotation
							JOINT Right_wrist
							{
								OFFSET -0.256597 0.009233 -0.005063
								CHANNELS 3 Zrotation Yrotation Xrotation
								JOINT Right_palm
								{
									OFFSET -0.080528 -0.007219 -0.010379
									CHANNELS 3 Zrotation Yrotation Xrotation
									End Site
									{
										OFFSET 0.000000 0.000000 0.000000
									}
								}
							}
						}
					}
				}
			}
		}
	}
}
MOTION
Frames: 5
Frame Time: 0.100000
0.000000 0.000000 0.000000 173.628647 25.492602 -20.016087 10.196598 7.582672 15.228238 -2.827537 3.761092 -6.795731 -5.098893 8.548604 3.135046 3.617545 7.328521 -3.956105 -4.341319 -6.651612 14.777868 3.835765 -6.973863 -5.888554 3.326873 -5.535374 1.104520 0.255497 -5.555309 4.458896 -0.347013 1.027585 -2.272841 0.072697 -2.622976 9.051839 0.776004 -1.599931 -0.930081 1.925034 6.926644 8.791006 -0.120327 -1.812343 -6.778559 -25.170655 -4.621552 9.164798 -50.717469 -2.227425 10.533259 3.695661 -27.107026 15.188317 -10.473004 -11.871080 9.237384 -9.097639 -1.761803 -20.931744 24.390733 10.279662 8.578096 53.751225 3.252338 13.678743 -6.801381 25.686318 8.085596 4.781535 7.387414 2.842457 9.002465 2.989329 -7.497303 
0.006538 -0.001317 -0.000497 173.691142 26.359717 -19.882271 10.069046 7.543777 13.812354 -2.462158 3.662911 -5.437660 -4.880199 8.420694 3.771519 3.191064 7.552349 -4.091202 -3.998217 -6.763491 13.983005 3.641337 -7.364553 -4.946177 2.231732 -5.860769 1.088783 1.323816 -5.803531 4.837314 0.143084 1.196221 -1.667128 0.101885 -2.632402 9.067966 0.501470 -1.391677 -1.384207 2.215766 5.713382 8.935814 0.375551 -2.218595 -6.988004 -26.012745 -4.406734 8.420353 -50.871616 -2.607893 10.572524 5.085241 -24.456410 12.166189 -10.544275 -11.290361 8.863128 -9.302955 -2.178424 -20.054272 24.543196 10.235459 8.145775 53.597193 3.000694 13.908283 -7.203486 25.456103 7.188162 4.772735 7.519514 2.808732 9.429710 3.346968 -7.020372 
0.015109 0.000346 -0.013964 173.842762 27.475145 -19.271232 9.336230 7.316150 10.377527 -2.092826 3.363443 -2.561318 -4.423156 8.074080 3.836262 2.735274 8.205261 -3.994394 -3.730895 -6.795104 11.174599 2.972411 -7.833717 -2.530978 1.318305 -6.814471 0.653064 1.646747 -4.979574 5.079934 0.258993 1.429589 0.126885 0.362672 -3.187253 10.382102 0.349893 -1.325587 -2.206219 2.194414 4.553219 8.031327 1.637340 -3.531990 -8.741505 -26.580449 -6.913937 7.865011 -50.052582 -4.334032 11.188886 4.993631 -21.476854 9.229177 -11.300115 -10.144974 9.703219 -9.890471 -3.225065 -19.152960 24.692509 12.231362 7.899808 52.455660 3.144338 14.065987 -7.428298 25.239106 5.996395 5.335758 7.507928 3.969052 10.514055 4.156860 -6.891216 
0.028573 0.005464 -0.042765 173.916643 27.943562 -17.541942 8.434031 7.209653 4.699650 -1.846603 3.653591 0.623147 -3.893178 7.525141 3.987606 2.400186 8.810399 -3.649198 -3.331045 -6.992539 5.796252 2.313486 -8.461961 0.264019 0.877139 -7.092431 0.726128 1.317730 -4.214765 5.270063 0.431960 1.819238 3.932155 0.867415 -3.823007 12.027828 0.710665 -1.056868 -3.256709 1.266615 3.796009 6.048756 3.291788 -5.051758 -12.513568 -26.077079 -11.534496 7.771516 -49.702948 -6.761304 12.066729 5.407366 -22.255467 6.075195 -10.643476 -9.298894 10.250440 -10.766620 -4.368483 -18.122205 24.282411 16.287843 8.399745 51.019711 4.300517 13.407312 -8.643212 25.998010 3.615608 5.536840 7.653930 4.825933 11.720463 5.006029 -7.200827 
0.051255 0.018385 -0.085667 173.928641 27.647177 -14.724675 7.518110 6.799578 -2.243918 -1.585528 3.749207 2.649313 -2.702673 7.506961 3.928533 2.126177 9.106947 -3.002725 -2.563541 -6.207242 -2.929349 1.487687 -9.262355 5.369088 0.207581 -7.151234 0.345643 1.018689 -3.925900 5.570396 0.579422 1.910184 10.717780 1.450931 -3.840384 12.658437 1.359916 -0.399119 -4.261580 -0.205836 3.237405 2.383847 4.952870 -5.827485 -16.483940 -24.589823 -15.747236 6.833336 -48.871744 -8.670510 13.226397 6.820633 -29.046760 2.894933 -9.002514 -9.495692 9.715058 -11.707875 -5.311968 -16.060295 23.406921 20.006171 8.393931 48.826960 5.480278 12.241729 -11.023339 30.233044 0.513649 5.820578 8.630119 4.508623 12.473087 5.696343 -7.066792 
